<svg xmlns="http://www.w3.org/2000/svg" viewBox="0 0 420 420">
  <g transform="translate(-80, -55)">
    <polygon fill="#0565D8" points="288.819,236.327 288.819,288.725 288.819,352.909 288.819,405.306 389.781,463.597
      389.781,411.199 389.781,347.016 389.781,294.618"/>
    <polygon fill="#055AAD" points="187.856,294.618 187.856,347.016 187.856,411.199 187.856,463.597 288.819,405.306
      288.819,352.909 288.819,288.725 288.819,236.327"/>
    <polygon fill="#50A5F9" points="389.781,61.456 288.819,119.746 187.856,61.456 86.894,119.746 187.856,178.037 288.819,236.327
      389.781,178.037 490.744,119.746"/>
    <polygon fill="#2B94FC" points="187.856,178.037 86.894,119.746 86.894,236.327 86.894,288.725 86.894,352.909 86.894,405.306
      187.856,463.597 187.856,411.199 187.856,347.016 187.856,294.618 288.819,352.909 288.819,236.327"/>
    <polygon fill="#127BF9" points="389.781,178.037 288.819,236.327 288.819,352.909 389.781,294.618 389.781,347.016 389.781,411.199
      389.781,463.597 490.744,405.306 490.744,352.909 490.744,288.725 490.744,236.327 490.744,119.746"/>
  </g>
</svg>
